# xmcd
#
# Track frame offsets: 
#        150
#        17525
#        40325
#        61100
#        83150
#        107300
#        128600
#        149600
#        174725
#        198725
#        222350
#        249425
#        275225
#        305450
#
# Disc length: 4278 seconds
#
# Revision: 0
# Processed by: cddbd v1.5.2PL0 Copyright (c) Steve Scherf et al.
# Submitted via: ExactAudioCopy v1.0b3
#
DISCID=c810b40e
DTITLE=Various Artist - Xuan Dac Biet
DYEAR=1990
DGENRE=
TTITLE0=Ngoc Lan - Canh thiep dau nam
TTITLE1=Duy Khanh - Xuan nay con khong ve
TTITLE2=Huong Lan - Mua Xuan dau
TTITLE3=Duy Khanh - Thu Xuan tren rung cao
TTITLE4=Che Linh - Mua Xuan cua Me
TTITLE5=Che Linh - Hen mot mua Xuan (Toi se ve)
TTITLE6=Che Linh - Don vang chieu Xuan
TTITLE7=Thanh Tuyen - Cau chuyen dau nam
TTITLE8=Kieu Nga - Ly ruou mung
TTITLE9=Hang Nga - Dan ao mua Xuan
TTITLE10=Vu Khanh - Toi chua co mua Xuan
TTITLE11=Tuan Vu - Mua Xuan la kho
TTITLE12=Huong Lan - Xuan nay con se ve
TTITLE13=Ngoc Lan - Nhung kiep hoa Xuan
EXTD=
EXTT0=
EXTT1=
EXTT2=
EXTT3=
EXTT4=
EXTT5=
EXTT6=
EXTT7=
EXTT8=
EXTT9=
EXTT10=
EXTT11=
EXTT12=
EXTT13=
PLAYORDER=
